<?xml version="1.0" encoding="utf-8"?>
<!-- Generator: Adobe Illustrator 16.0.0, SVG Export Plug-In . SVG Version: 6.00 Build 0)  -->
<!DOCTYPE svg PUBLIC "-//W3C//DTD SVG 1.1//EN" "http://www.w3.org/Graphics/SVG/1.1/DTD/svg11.dtd">
<svg version="1.1" id="Layer_1" xmlns="http://www.w3.org/2000/svg" xmlns:xlink="http://www.w3.org/1999/xlink" x="0px" y="0px"
	 width="326px" height="96.25px" viewBox="2.812 0 326 96.25" enable-background="new 2.812 0 326 96.25" xml:space="preserve">
<g>
	<path fill="#BE1E2D" d="M98.013,82.898c-37.124,0-67.219-21.479-67.219-47.975c0-13.108,7.375-24.985,19.313-33.643
		c-27.136,6.17-46.794,24.3-46.794,45.713c0,26.494,30.096,47.975,67.22,47.975c18.757,0,35.712-5.489,47.906-14.332
		C111.997,82.103,105.137,82.898,98.013,82.898z"/>
	<g>
		<path d="M90.846,39.706c-0.389,2.247-1.514,4.164-3.376,5.752c-1.864,1.589-3.919,2.382-6.169,2.382H67.916l-2.36,13.364H55.112
			l3.796-21.498H90.846z M91.892,33.081c0,0.466-0.04,0.931-0.116,1.395L91.368,36.8H59.423l1.849-10.459h23.822
			c1.976,0,3.604,0.638,4.881,1.918C91.253,29.537,91.892,31.146,91.892,33.081z"/>
		<path d="M120.885,50.745l-1.859,10.459H89.974l3.796-21.498h10.386l-1.891,11.039H120.885z M106.576,26.342l-1.907,10.459H94.284
			l1.849-10.459H106.576z"/>
		<path d="M153.597,61.204h-10.458l-0.349-4.649h-9.844l-1.983,4.649h-10.486l9.172-21.498h7.804
			c1.709,0.005,2.602,0.007,2.679,0.007l-3.444,8.127h5.52l-0.64-8.134h10.459L153.597,61.204z M151.795,36.801h-20.906
			l4.463-10.459h15.687L151.795,36.801z"/>
		<path d="M169.291,39.706l-3.796,21.498H155.05l3.795-21.498H169.291z M191.828,33.081c0,0.466-0.038,0.931-0.115,1.395
			l-0.407,2.324H159.36l1.849-10.459h23.822c1.976,0,3.602,0.638,4.879,1.918C191.19,29.537,191.828,31.146,191.828,33.081z
			 M190.793,39.706l-3.786,21.498h-10.442l3.783-21.498H190.793z"/>
		<path d="M222.681,39.706l-1.396,8.134h-18.627l-0.514,2.905h18.62l-1.858,10.459h-29.052l3.795-21.498H222.681z M225.063,26.342
			l-1.857,10.459h-29.044l1.849-10.459H225.063z"/>
		<path d="M259.925,26.342l-1.859,10.459h-31.956l1.858-10.459H259.925z M246.777,39.706l-3.776,21.498h-10.442l3.776-21.498
			H246.777z"/>
		<path d="M290.487,50.745l-1.859,10.459h-23.822c-1.976,0-3.603-0.639-4.882-1.917c-1.277-1.279-1.916-2.867-1.916-4.765
			c0-0.504,0.038-0.988,0.116-1.454l2.276-13.363h10.502l-1.933,11.039L290.487,50.745L290.487,50.745z M294.786,26.342
			l-1.858,10.459h-31.957l0.407-2.324c0.387-2.246,1.521-4.163,3.399-5.753c1.877-1.588,3.939-2.382,6.188-2.382H294.786z"/>
		<path d="M327.28,39.706l-2.339,13.364c-0.386,2.247-1.52,4.163-3.397,5.753c-1.879,1.588-3.943,2.382-6.189,2.382h-15.687
			c-1.976,0-3.604-0.638-4.882-1.918c-1.277-1.278-1.917-2.885-1.917-4.821c0-0.465,0.038-0.93,0.117-1.396l2.276-13.363h10.502
			l-1.933,11.039h11.017l1.934-11.039L327.28,39.706L327.28,39.706z M328.312,33.081c0,0.466-0.039,0.931-0.115,1.395l-0.408,2.324
			h-31.956l0.407-2.324c0.388-2.246,1.521-4.163,3.399-5.753c1.877-1.588,3.939-2.382,6.188-2.382h15.687
			c1.976,0,3.603,0.638,4.881,1.918C327.672,29.537,328.312,31.146,328.312,33.081z"/>
	</g>
</g>
</svg>
